solid OpenSCAD_Model
  facet normal 1.90735e-07 1 -0
    outer loop
      vertex 2.5 5 -0.00999928
      vertex -2.5 5 17.49
      vertex 2.5 5 17.49
    endloop
  endfacet
  facet normal 1.90735e-07 1 0
    outer loop
      vertex -2.5 5 17.49
      vertex 2.5 5 -0.00999928
      vertex -2.5 5 -0.00999928
    endloop
  endfacet
  facet normal -1.90735e-07 -1 0
    outer loop
      vertex -2.5 -5 -0.00999928
      vertex 2.5 -5 17.49
      vertex -2.5 -5 17.49
    endloop
  endfacet
  facet normal -1.90735e-07 -1 -0
    outer loop
      vertex 2.5 -5 17.49
      vertex -2.5 -5 -0.00999928
      vertex 2.5 -5 -0.00999928
    endloop
  endfacet
  facet normal 0 0 -1
    outer loop
      vertex 2.5 -5 -0.00999928
      vertex -2.5 5 -0.00999928
      vertex 2.5 5 -0.00999928
    endloop
  endfacet
  facet normal 0 -0 -1
    outer loop
      vertex -2.5 5 -0.00999928
      vertex 2.5 -5 -0.00999928
      vertex -2.5 -5 -0.00999928
    endloop
  endfacet
  facet normal 1 -9.53674e-08 0
    outer loop
      vertex 2.5 -5 17.49
      vertex 2.5 5 -0.00999928
      vertex 2.5 5 17.49
    endloop
  endfacet
  facet normal 1 -9.53674e-08 0
    outer loop
      vertex 2.5 5 -0.00999928
      vertex 2.5 -5 17.49
      vertex 2.5 -5 -0.00999928
    endloop
  endfacet
  facet normal -1 9.53674e-08 0
    outer loop
      vertex -2.5 -5 -0.00999928
      vertex -2.5 5 17.49
      vertex -2.5 5 -0.00999928
    endloop
  endfacet
  facet normal -1 9.53674e-08 0
    outer loop
      vertex -2.5 5 17.49
      vertex -2.5 -5 -0.00999928
      vertex -2.5 -5 17.49
    endloop
  endfacet
  facet normal -1 0 0
    outer loop
      vertex -15 -5 17.49
      vertex -15 5 22.49
      vertex -15 5 17.49
    endloop
  endfacet
  facet normal -1 -0 0
    outer loop
      vertex -15 5 22.49
      vertex -15 -5 17.49
      vertex -15 -5 22.49
    endloop
  endfacet
  facet normal -0 0 1
    outer loop
      vertex -15 5 22.49
      vertex 15 -5 22.49
      vertex 15 5 22.49
    endloop
  endfacet
  facet normal 0 0 1
    outer loop
      vertex 15 -5 22.49
      vertex -15 5 22.49
      vertex -15 -5 22.49
    endloop
  endfacet
  facet normal 1 -0 0
    outer loop
      vertex 15 -5 22.49
      vertex 15 5 12.51
      vertex 15 5 22.49
    endloop
  endfacet
  facet normal 1 0 0
    outer loop
      vertex 15 5 12.51
      vertex 15 -5 22.49
      vertex 15 -5 12.51
    endloop
  endfacet
  facet normal 0 0 -1
    outer loop
      vertex 2.5 -5 17.49
      vertex -15 -5 17.49
      vertex -2.5 -5 17.49
    endloop
  endfacet
  facet normal 0 0 -1
    outer loop
      vertex -15 -5 17.49
      vertex -2.5 5 17.49
      vertex -2.5 -5 17.49
    endloop
  endfacet
  facet normal -0 0 -1
    outer loop
      vertex -2.5 5 17.49
      vertex -15 -5 17.49
      vertex -15 5 17.49
    endloop
  endfacet
  facet normal 0 0 -1
    outer loop
      vertex 10 -5 17.49
      vertex 2.5 5 17.49
      vertex 10 5 17.49
    endloop
  endfacet
  facet normal 0 -0 -1
    outer loop
      vertex 2.5 5 17.49
      vertex 10 -5 17.49
      vertex 2.5 -5 17.49
    endloop
  endfacet
  facet normal -0 0 -1
    outer loop
      vertex 10 5 17.49
      vertex 2.5 5 17.49
      vertex -2.5 5 17.49
    endloop
  endfacet
  facet normal 0 -1 0
    outer loop
      vertex 2.5 -5 17.49
      vertex -15 -5 22.49
      vertex -15 -5 17.49
    endloop
  endfacet
  facet normal 0 -1 0
    outer loop
      vertex -15 -5 22.49
      vertex 2.5 -5 17.49
      vertex 15 -5 22.49
    endloop
  endfacet
  facet normal 0 -1 0
    outer loop
      vertex 10 -5 17.49
      vertex 15 -5 22.49
      vertex 2.5 -5 17.49
    endloop
  endfacet
  facet normal 0 -1 0
    outer loop
      vertex 15 -5 12.51
      vertex 10 -5 17.49
      vertex 10 -5 12.51
    endloop
  endfacet
  facet normal 0 -1 0
    outer loop
      vertex 10 -5 17.49
      vertex 15 -5 12.51
      vertex 15 -5 22.49
    endloop
  endfacet
  facet normal 0 1 0
    outer loop
      vertex -2.5 5 17.49
      vertex 15 5 22.49
      vertex 10 5 17.49
    endloop
  endfacet
  facet normal 0 1 -0
    outer loop
      vertex 15 5 12.51
      vertex 10 5 17.49
      vertex 15 5 22.49
    endloop
  endfacet
  facet normal 0 1 0
    outer loop
      vertex 10 5 17.49
      vertex 15 5 12.51
      vertex 10 5 12.51
    endloop
  endfacet
  facet normal 0 1 0
    outer loop
      vertex 15 5 22.49
      vertex -2.5 5 17.49
      vertex -15 5 22.49
    endloop
  endfacet
  facet normal 0 1 0
    outer loop
      vertex -15 5 22.49
      vertex -2.5 5 17.49
      vertex -15 5 17.49
    endloop
  endfacet
  facet normal -1 0 0
    outer loop
      vertex 10 -5 12.51
      vertex 10 5 17.49
      vertex 10 5 12.51
    endloop
  endfacet
  facet normal -1 -0 0
    outer loop
      vertex 10 5 17.49
      vertex 10 -5 12.51
      vertex 10 -5 17.49
    endloop
  endfacet
  facet normal 0 0 -1
    outer loop
      vertex 10 -5 12.51
      vertex 15 5 12.51
      vertex 15 -5 12.51
    endloop
  endfacet
  facet normal -0 0 -1
    outer loop
      vertex 15 5 12.51
      vertex 10 -5 12.51
      vertex 10 5 12.51
    endloop
  endfacet
endsolid OpenSCAD_Model
